<svg width="764" height="81" viewBox="0 0 764 81" fill="none" xmlns="http://www.w3.org/2000/svg">
<path d="M16.0714 0.64286H24.1071V8.67857H16.0714V0.64286ZM8.03571 0.64286H16.0714V8.67857H8.03571V0.64286ZM8.03571 8.67857H16.0714V16.7143H8.03571V8.67857ZM16.0714 8.67857H24.1071V16.7143H16.0714V8.67857ZM24.1071 8.67857H32.1429V16.7143H24.1071V8.67857ZM24.1071 0.64286H32.1429V8.67857H24.1071V0.64286ZM32.1429 0.64286H40.1786V8.67857H32.1429V0.64286ZM40.1786 0.64286H48.2143V8.67857H40.1786V0.64286ZM40.1786 8.67857H48.2143V16.7143H40.1786V8.67857ZM32.1429 8.67857H40.1786V16.7143H32.1429V8.67857ZM40.1786 16.7143H48.2143V24.75H40.1786V16.7143ZM48.2143 8.67857H56.25V16.7143H48.2143V8.67857ZM48.2143 16.7143H56.25V24.75H48.2143V16.7143ZM48.2143 56.8929H56.25V64.9286H48.2143V56.8929ZM48.2143 64.9286H56.25V72.9643H48.2143V64.9286ZM40.1786 64.9286H48.2143V72.9643H40.1786V64.9286ZM40.1786 56.8929H48.2143V64.9286H40.1786V56.8929ZM32.1429 64.9286H40.1786V72.9643H32.1429V64.9286ZM40.1786 72.9643H48.2143V81H40.1786V72.9643ZM32.1429 72.9643H40.1786V81H32.1429V72.9643ZM24.1071 72.9643H32.1429V81H24.1071V72.9643ZM24.1071 64.9286H32.1429V72.9643H24.1071V64.9286ZM16.0714 72.9643H24.1071V81H16.0714V72.9643ZM8.03571 72.9643H16.0714V81H8.03571V72.9643ZM8.03571 64.9286H16.0714V72.9643H8.03571V64.9286ZM16.0714 64.9286H24.1071V72.9643H16.0714V64.9286ZM16.0714 56.8929H24.1071V64.9286H16.0714V56.8929ZM8.03571 56.8929H16.0714V64.9286H8.03571V56.8929ZM0 64.9286H8.03571V72.9643H0V64.9286ZM0 56.8929H8.03571V64.9286H0V56.8929ZM0 48.8571H8.03571V56.8929H0V48.8571ZM0 40.8214H8.03571V48.8571H0V40.8214ZM0 32.7857H8.03571V40.8214H0V32.7857ZM0 24.75H8.03571V32.7857H0V24.75ZM0 16.7143H8.03571V24.75H0V16.7143ZM8.03571 16.7143H16.0714V24.75H8.03571V16.7143ZM0 8.67857H8.03571V16.7143H0V8.67857ZM16.0714 16.7143H24.1071V24.75H16.0714V16.7143ZM8.03571 24.75H16.0714V32.7857H8.03571V24.75ZM8.03571 32.7857H16.0714V40.8214H8.03571V32.7857ZM8.03571 40.8214H16.0714V48.8571H8.03571V40.8214ZM8.03571 48.8571H16.0714V56.8929H8.03571V48.8571ZM64.3066 24.75H72.3424V32.7857H64.3066V24.75ZM64.3066 16.7143H72.3424V24.75H64.3066V16.7143ZM72.3424 16.7143H80.3781V24.75H72.3424V16.7143ZM72.3424 24.75H80.3781V32.7857H72.3424V24.75ZM72.3424 32.7857H80.3781V40.8214H72.3424V32.7857ZM72.3424 40.8214H80.3781V48.8571H72.3424V40.8214ZM72.3424 48.8571H80.3781V56.8929H72.3424V48.8571ZM64.3066 48.8571H72.3424V56.8929H64.3066V48.8571ZM64.3066 40.8214H72.3424V48.8571H64.3066V40.8214ZM64.3066 32.7857H72.3424V40.8214H64.3066V32.7857ZM64.3066 56.8929H72.3424V64.9286H64.3066V56.8929ZM72.3424 56.8929H80.3781V64.9286H72.3424V56.8929ZM72.3424 64.9286H80.3781V72.9643H72.3424V64.9286ZM72.3424 72.9643H80.3781V81H72.3424V72.9643ZM64.3066 72.9643H72.3424V81H64.3066V72.9643ZM64.3066 64.9286H72.3424V72.9643H64.3066V64.9286ZM104.485 72.9643H112.521V81H104.485V72.9643ZM112.521 72.9643H120.557V81H112.521V72.9643ZM112.521 64.9286H120.557V72.9643H112.521V64.9286ZM112.521 56.8929H120.557V64.9286H112.521V56.8929ZM112.521 48.8571H120.557V56.8929H112.521V48.8571ZM112.521 40.8214H120.557V48.8571H112.521V40.8214ZM112.521 32.7857H120.557V40.8214H112.521V32.7857ZM112.521 24.75H120.557V32.7857H112.521V24.75ZM104.485 40.8214H112.521V48.8571H104.485V40.8214ZM104.485 48.8571H112.521V56.8929H104.485V48.8571ZM104.485 56.8929H112.521V64.9286H104.485V56.8929ZM104.485 64.9286H112.521V72.9643H104.485V64.9286ZM104.485 32.7857H112.521V40.8214H104.485V32.7857ZM80.3781 24.75H88.4138V32.7857H80.3781V24.75ZM88.4138 24.75H96.4495V32.7857H88.4138V24.75ZM96.4495 24.75H104.485V32.7857H96.4495V24.75ZM96.4495 16.7143H104.485V24.75H96.4495V16.7143ZM104.485 16.7143H112.521V24.75H104.485V16.7143ZM104.485 24.75H112.521V32.7857H104.485V24.75ZM88.4138 16.7143H96.4495V24.75H88.4138V16.7143ZM64.3066 0.64286H72.3424V8.67857H64.3066V0.64286ZM72.3424 0.64286H80.3781V8.67857H72.3424V0.64286ZM72.3424 8.67857H80.3781V16.7143H72.3424V8.67857ZM64.3066 8.67857H72.3424V16.7143H64.3066V8.67857ZM144.685 16.7143H152.72V24.75H144.685V16.7143ZM136.649 16.7143H144.685V24.75H136.649V16.7143ZM136.649 24.75H144.685V32.7857H136.649V24.75ZM144.685 24.75H152.72V32.7857H144.685V24.75ZM152.72 16.7143H160.756V24.75H152.72V16.7143ZM160.756 16.7143H168.792V24.75H160.756V16.7143ZM168.792 16.7143H176.828V24.75H168.792V16.7143ZM168.792 24.75H176.828V32.7857H168.792V24.75ZM160.756 24.75H168.792V32.7857H160.756V24.75ZM168.792 40.8214H176.828V48.8571H168.792V40.8214ZM176.828 24.75H184.863V32.7857H176.828V24.75ZM176.828 32.7857H184.863V40.8214H176.828V32.7857ZM176.828 40.8214H184.863V48.8571H176.828V40.8214ZM176.828 48.8571H184.863V56.8929H176.828V48.8571ZM176.828 56.8929H184.863V64.9286H176.828V56.8929ZM176.828 64.9286H184.863V72.9643H176.828V64.9286ZM168.792 64.9286H176.828V72.9643H168.792V64.9286ZM168.792 56.8929H176.828V64.9286H168.792V56.8929ZM168.792 48.8571H176.828V56.8929H168.792V48.8571ZM168.792 32.7857H176.828V40.8214H168.792V32.7857ZM160.756 64.9286H168.792V72.9643H160.756V64.9286ZM168.792 72.9643H176.828V81H168.792V72.9643ZM160.756 72.9643H168.792V81H160.756V72.9643ZM152.72 72.9643H160.756V81H152.72V72.9643ZM144.685 72.9643H152.72V81H144.685V72.9643ZM136.649 72.9643H144.685V81H136.649V72.9643ZM136.649 64.9286H144.685V72.9643H136.649V64.9286ZM144.685 64.9286H152.72V72.9643H144.685V64.9286ZM136.649 56.8929H144.685V64.9286H136.649V56.8929ZM128.613 64.9286H136.649V72.9643H128.613V64.9286ZM128.613 56.8929H136.649V64.9286H128.613V56.8929ZM128.613 48.8571H136.649V56.8929H128.613V48.8571ZM128.613 40.8214H136.649V48.8571H128.613V40.8214ZM128.613 32.7857H136.649V40.8214H128.613V32.7857ZM128.613 24.75H136.649V32.7857H128.613V24.75ZM136.649 32.7857H144.685V40.8214H136.649V32.7857ZM136.649 40.8214H144.685V48.8571H136.649V40.8214ZM136.649 48.8571H144.685V56.8929H136.649V48.8571ZM152.72 64.9286H160.756V72.9643H152.72V64.9286ZM152.72 24.75H160.756V32.7857H152.72V24.75ZM192.92 24.75H200.956V32.7857H192.92V24.75ZM192.92 16.7143H200.956V24.75H192.92V16.7143ZM200.956 16.7143H208.991V24.75H200.956V16.7143ZM200.956 24.75H208.991V32.7857H200.956V24.75ZM200.956 32.7857H208.991V40.8214H200.956V32.7857ZM200.956 40.8214H208.991V48.8571H200.956V40.8214ZM200.956 48.8571H208.991V56.8929H200.956V48.8571ZM192.92 48.8571H200.956V56.8929H192.92V48.8571ZM192.92 40.8214H200.956V48.8571H192.92V40.8214ZM192.92 32.7857H200.956V40.8214H192.92V32.7857ZM192.92 56.8929H200.956V64.9286H192.92V56.8929ZM200.956 56.8929H208.991V64.9286H200.956V56.8929ZM200.956 64.9286H208.991V72.9643H200.956V64.9286ZM200.956 72.9643H208.991V81H200.956V72.9643ZM192.92 72.9643H200.956V81H192.92V72.9643ZM192.92 64.9286H200.956V72.9643H192.92V64.9286ZM208.991 24.75H217.027V32.7857H208.991V24.75ZM217.027 24.75H225.063V32.7857H217.027V24.75ZM225.063 24.75H233.098V32.7857H225.063V24.75ZM225.063 16.7143H233.098V24.75H225.063V16.7143ZM217.027 16.7143H225.063V24.75H217.027V16.7143ZM208.991 32.7857H217.027V40.8214H208.991V32.7857ZM233.098 24.75H241.134V32.7857H233.098V24.75ZM225.063 32.7857H233.098V40.8214H225.063V32.7857ZM305.42 24.75V32.7857H297.384V24.75H305.42ZM305.42 16.7143V24.75H297.384V16.7143H305.42ZM297.384 16.7143V24.75H289.348V16.7143H297.384ZM297.384 24.75V32.7857H289.348V24.75H297.384ZM297.384 32.7857V40.8214H289.348V32.7857H297.384ZM297.384 40.8214V48.8571H289.348V40.8214H297.384ZM297.384 48.8571V56.8929H289.348V48.8571H297.384ZM305.42 48.8571V56.8929H297.384V48.8571H305.42ZM305.42 40.8214V48.8571H297.384V40.8214H305.42ZM305.42 32.7857V40.8214H297.384V32.7857H305.42ZM305.42 56.8929V64.9286H297.384V56.8929H305.42ZM297.384 56.8929V64.9286H289.348V56.8929H297.384ZM297.384 64.9286V72.9643H289.348V64.9286H297.384ZM297.384 72.9643V81H289.348V72.9643H297.384ZM305.42 72.9643V81H297.384V72.9643H305.42ZM305.42 64.9286V72.9643H297.384V64.9286H305.42ZM265.241 72.9643V81H257.206V72.9643H265.241ZM257.206 64.9286V72.9643H249.17V64.9286H257.206ZM257.206 56.8929V64.9286H249.17V56.8929H257.206ZM257.206 48.8571V56.8929H249.17V48.8571H257.206ZM257.206 40.8214V48.8571H249.17V40.8214H257.206ZM257.206 32.7857V40.8214H249.17V32.7857H257.206ZM257.206 24.75V32.7857H249.17V24.75H257.206ZM265.241 40.8214V48.8571H257.206V40.8214H265.241ZM265.241 48.8571V56.8929H257.206V48.8571H265.241ZM265.241 56.8929V64.9286H257.206V56.8929H265.241ZM265.241 64.9286V72.9643H257.206V64.9286H265.241ZM265.241 32.7857V40.8214H257.206V32.7857H265.241ZM273.277 24.75V32.7857H265.241V24.75H273.277ZM273.277 16.7143V24.75H265.241V16.7143H273.277ZM265.241 16.7143V24.75H257.206V16.7143H265.241ZM265.241 24.75V32.7857H257.206V24.75H265.241ZM281.313 16.7143V24.75H273.277V16.7143H281.313ZM305.42 0.64286V8.67857H297.384V0.64286H305.42ZM297.384 0.64286V8.67857H289.348V0.64286H297.384ZM297.384 8.67857V16.7143H289.348V8.67857H297.384ZM305.42 8.67857V16.7143H297.384V8.67857H305.42ZM281.313 72.9643V81H273.277V72.9643H281.313ZM273.277 72.9643V81H265.241V72.9643H273.277ZM273.277 64.9286V72.9643H265.241V64.9286H273.277ZM281.313 64.9286V72.9643H273.277V64.9286H281.313ZM289.348 64.9286V72.9643H281.313V64.9286H289.348ZM289.348 16.7143V24.75H281.313V16.7143H289.348ZM289.348 24.75V32.7857H281.313V24.75H289.348ZM281.313 24.75V32.7857H273.277V24.75H281.313ZM345.557 72.9643H353.592V81H345.557V72.9643ZM345.557 64.9286H353.592V72.9643H345.557V64.9286ZM345.557 56.8929H353.592V64.9286H345.557V56.8929ZM345.557 48.8571H353.592V56.8929H345.557V48.8571ZM345.557 40.8214H353.592V48.8571H345.557V40.8214ZM345.557 32.7857H353.592V40.8214H345.557V32.7857ZM353.592 32.7857H361.628V40.8214H353.592V32.7857ZM353.592 24.75H361.628V32.7857H353.592V24.75ZM353.592 16.7143H361.628V24.75H353.592V16.7143ZM353.592 8.67857H361.628V16.7143H353.592V8.67857ZM345.557 8.67857H353.592V16.7143H345.557V8.67857ZM345.557 0.64286H353.592V8.67857H345.557V0.64286ZM345.557 16.7143H353.592V24.75H345.557V16.7143ZM345.557 24.75H353.592V32.7857H345.557V24.75ZM353.592 0.64286H361.628V8.67857H353.592V0.64286ZM353.592 40.8214H361.628V48.8571H353.592V40.8214ZM353.592 48.8571H361.628V56.8929H353.592V48.8571ZM353.592 56.8929H361.628V64.9286H353.592V56.8929ZM353.592 64.9286H361.628V72.9643H353.592V64.9286ZM353.592 72.9643H361.628V81H353.592V72.9643ZM361.628 16.7143H369.664V24.75H361.628V16.7143ZM361.628 24.75H369.664V32.7857H361.628V24.75ZM369.664 24.75H377.699V32.7857H369.664V24.75ZM369.664 32.7857H377.699V40.8214H369.664V32.7857ZM377.699 32.7857H385.735V40.8214H377.699V32.7857ZM377.699 40.8214H385.735V48.8571H377.699V40.8214ZM385.735 32.7857H393.771V40.8214H385.735V32.7857ZM385.735 24.75H393.771V32.7857H385.735V24.75ZM393.771 24.75H401.807V32.7857H393.771V24.75ZM393.771 16.7143H401.807V24.75H393.771V16.7143ZM401.807 0.64286H409.842V8.67857H401.807V0.64286ZM401.807 8.67857H409.842V16.7143H401.807V8.67857ZM401.807 16.7143H409.842V24.75H401.807V16.7143ZM401.807 24.75H409.842V32.7857H401.807V24.75ZM401.807 32.7857H409.842V40.8214H401.807V32.7857ZM401.807 40.8214H409.842V48.8571H401.807V40.8214ZM401.807 48.8571H409.842V56.8929H401.807V48.8571ZM401.807 56.8929H409.842V64.9286H401.807V56.8929ZM401.807 64.9286H409.842V72.9643H401.807V64.9286ZM401.807 72.9643H409.842V81H401.807V72.9643ZM409.842 72.9643H417.878V81H409.842V72.9643ZM409.842 64.9286H417.878V72.9643H409.842V64.9286ZM409.842 56.8929H417.878V64.9286H409.842V56.8929ZM409.842 48.8571H417.878V56.8929H409.842V48.8571ZM409.842 40.8214H417.878V48.8571H409.842V40.8214ZM409.842 32.7857H417.878V40.8214H409.842V32.7857ZM409.842 24.75H417.878V32.7857H409.842V24.75ZM409.842 16.7143H417.878V24.75H409.842V16.7143ZM409.842 8.67857H417.878V16.7143H409.842V8.67857ZM409.842 0.64286H417.878V8.67857H409.842V0.64286ZM361.628 8.67857H369.664V16.7143H361.628V8.67857ZM369.664 16.7143H377.699V24.75H369.664V16.7143ZM377.699 24.75H385.735V32.7857H377.699V24.75ZM385.735 16.7143H393.771V24.75H385.735V16.7143ZM393.771 8.67857H401.807V16.7143H393.771V8.67857ZM474.191 81H466.155V72.9643H474.191V81ZM474.191 72.9643H466.155V64.9286H474.191V72.9643ZM466.155 72.9643H458.119V64.9286H466.155V72.9643ZM458.119 81H450.084V72.9643H458.119V81ZM450.084 81H442.048V72.9643H450.084V81ZM442.048 81H434.012V72.9643H442.048V81ZM442.048 72.9643H434.012V64.9286H442.048V72.9643ZM450.084 72.9643H442.048V64.9286H450.084V72.9643ZM434.012 72.9643H425.977V64.9286H434.012V72.9643ZM434.012 64.9286H425.977V56.8929H434.012V64.9286ZM434.012 32.7857H425.977V24.75H434.012V32.7857ZM442.048 32.7857H434.012V24.75H442.048V32.7857ZM442.048 64.9286H434.012V56.8929H442.048V64.9286ZM450.084 32.7857H442.048V24.75H450.084V32.7857ZM442.048 24.75H434.012V16.7143H442.048V24.75ZM450.084 24.75H442.048V16.7143H450.084V24.75ZM458.119 24.75H450.084V16.7143H458.119V24.75ZM466.155 24.75H458.119V16.7143H466.155V24.75ZM474.191 24.75H466.155V16.7143H474.191V24.75ZM474.191 32.7857H466.155V24.75H474.191V32.7857ZM466.155 32.7857H458.119V24.75H466.155V32.7857ZM474.191 40.8214H466.155V32.7857H474.191V40.8214ZM482.227 32.7857H474.191V24.75H482.227V32.7857ZM482.227 40.8214H474.191V32.7857H482.227V40.8214ZM482.227 48.8571H474.191V40.8214H482.227V48.8571ZM482.227 56.8929H474.191V48.8571H482.227V56.8929ZM482.227 64.9286H474.191V56.8929H482.227V64.9286ZM482.227 72.9643H474.191V64.9286H482.227V72.9643ZM474.191 64.9286H466.155V56.8929H474.191V64.9286ZM474.191 56.8929H466.155V48.8571H474.191V56.8929ZM474.191 48.8571H466.155V40.8214H474.191V48.8571ZM458.119 32.7857H450.084V24.75H458.119V32.7857ZM458.119 72.9643H450.084V64.9286H458.119V72.9643ZM474.191 72.9643H482.227V81H474.191V72.9643ZM458.119 40.8214H466.155V48.8571H458.119V40.8214ZM450.084 40.8214H458.119V48.8571H450.084V40.8214ZM442.048 40.8214H450.084V48.8571H442.048V40.8214ZM434.012 40.8214H442.048V48.8571H434.012V40.8214ZM425.977 48.8571H434.012V56.8929H425.977V48.8571ZM434.012 48.8571H442.048V56.8929H434.012V48.8571ZM458.119 48.8571H466.155V56.8929H458.119V48.8571ZM450.084 48.8571H458.119V56.8929H450.084V48.8571ZM442.048 48.8571H450.084V56.8929H442.048V48.8571ZM506.355 16.7143H514.39V24.75H506.355V16.7143ZM498.319 16.7143H506.355V24.75H498.319V16.7143ZM498.319 24.75H506.355V32.7857H498.319V24.75ZM506.355 24.75H514.39V32.7857H506.355V24.75ZM514.39 16.7143H522.426V24.75H514.39V16.7143ZM522.426 16.7143H530.462V24.75H522.426V16.7143ZM530.462 16.7143H538.497V24.75H530.462V16.7143ZM530.462 24.75H538.497V32.7857H530.462V24.75ZM522.426 24.75H530.462V32.7857H522.426V24.75ZM538.497 24.75H546.533V32.7857H538.497V24.75ZM538.497 32.7857H546.533V40.8214H538.497V32.7857ZM538.497 56.8929H546.533V64.9286H538.497V56.8929ZM538.497 64.9286H546.533V72.9643H538.497V64.9286ZM530.462 64.9286H538.497V72.9643H530.462V64.9286ZM530.462 56.8929H538.497V64.9286H530.462V56.8929ZM530.462 32.7857H538.497V40.8214H530.462V32.7857ZM522.426 64.9286H530.462V72.9643H522.426V64.9286ZM530.462 72.9643H538.497V81H530.462V72.9643ZM522.426 72.9643H530.462V81H522.426V72.9643ZM514.39 72.9643H522.426V81H514.39V72.9643ZM506.355 72.9643H514.39V81H506.355V72.9643ZM498.319 72.9643H506.355V81H498.319V72.9643ZM498.319 64.9286H506.355V72.9643H498.319V64.9286ZM506.355 64.9286H514.39V72.9643H506.355V64.9286ZM498.319 56.8929H506.355V64.9286H498.319V56.8929ZM490.283 64.9286H498.319V72.9643H490.283V64.9286ZM490.283 56.8929H498.319V64.9286H490.283V56.8929ZM490.283 48.8571H498.319V56.8929H490.283V48.8571ZM490.283 40.8214H498.319V48.8571H490.283V40.8214ZM490.283 32.7857H498.319V40.8214H490.283V32.7857ZM490.283 24.75H498.319V32.7857H490.283V24.75ZM498.319 32.7857H506.355V40.8214H498.319V32.7857ZM498.319 40.8214H506.355V48.8571H498.319V40.8214ZM498.319 48.8571H506.355V56.8929H498.319V48.8571ZM514.39 64.9286H522.426V72.9643H514.39V64.9286ZM514.39 24.75H522.426V32.7857H514.39V24.75ZM554.59 24.75H562.626V32.7857H554.59V24.75ZM554.59 16.7143H562.626V24.75H554.59V16.7143ZM562.626 16.7143H570.661V24.75H562.626V16.7143ZM562.626 24.75H570.661V32.7857H562.626V24.75ZM562.626 32.7857H570.661V40.8214H562.626V32.7857ZM562.626 40.8214H570.661V48.8571H562.626V40.8214ZM562.626 48.8571H570.661V56.8929H562.626V48.8571ZM554.59 48.8571H562.626V56.8929H554.59V48.8571ZM554.59 40.8214H562.626V48.8571H554.59V40.8214ZM554.59 32.7857H562.626V40.8214H554.59V32.7857ZM554.59 56.8929H562.626V64.9286H554.59V56.8929ZM562.626 56.8929H570.661V64.9286H562.626V56.8929ZM562.626 64.9286H570.661V72.9643H562.626V64.9286ZM562.626 72.9643H570.661V81H562.626V72.9643ZM554.59 72.9643H562.626V81H554.59V72.9643ZM554.59 64.9286H562.626V72.9643H554.59V64.9286ZM594.768 72.9643H602.804V81H594.768V72.9643ZM602.804 72.9643H610.84V81H602.804V72.9643ZM602.804 64.9286H610.84V72.9643H602.804V64.9286ZM602.804 56.8929H610.84V64.9286H602.804V56.8929ZM602.804 48.8571H610.84V56.8929H602.804V48.8571ZM602.804 40.8214H610.84V48.8571H602.804V40.8214ZM602.804 32.7857H610.84V40.8214H602.804V32.7857ZM602.804 24.75H610.84V32.7857H602.804V24.75ZM594.768 40.8214H602.804V48.8571H594.768V40.8214ZM594.768 48.8571H602.804V56.8929H594.768V48.8571ZM594.768 56.8929H602.804V64.9286H594.768V56.8929ZM594.768 64.9286H602.804V72.9643H594.768V64.9286ZM594.768 32.7857H602.804V40.8214H594.768V32.7857ZM570.661 24.75H578.697V32.7857H570.661V24.75ZM578.697 24.75H586.733V32.7857H578.697V24.75ZM586.733 24.75H594.768V32.7857H586.733V24.75ZM586.733 16.7143H594.768V24.75H586.733V16.7143ZM594.768 16.7143H602.804V24.75H594.768V16.7143ZM594.768 24.75H602.804V32.7857H594.768V24.75ZM578.697 16.7143H586.733V24.75H578.697V16.7143ZM554.59 0.64286H562.626V8.67857H554.59V0.64286ZM562.626 0.64286H570.661V8.67857H562.626V0.64286ZM562.626 8.67857H570.661V16.7143H562.626V8.67857ZM554.59 8.67857H562.626V16.7143H554.59V8.67857ZM618.896 0.64286H634.968V16.7143H618.896V0.64286ZM618.896 24.75H634.968V81H618.896V24.75ZM643.066 24.75H651.102V32.7857H643.066V24.75ZM643.066 16.7143H651.102V24.75H643.066V16.7143ZM651.102 16.7143H659.138V24.75H651.102V16.7143ZM651.102 24.75H659.138V32.7857H651.102V24.75ZM651.102 32.7857H659.138V40.8214H651.102V32.7857ZM651.102 40.8214H659.138V48.8571H651.102V40.8214ZM651.102 48.8571H659.138V56.8929H651.102V48.8571ZM643.066 48.8571H651.102V56.8929H643.066V48.8571ZM643.066 40.8214H651.102V48.8571H643.066V40.8214ZM643.066 32.7857H651.102V40.8214H643.066V32.7857ZM643.066 56.8929H651.102V64.9286H643.066V56.8929ZM651.102 56.8929H659.138V64.9286H651.102V56.8929ZM651.102 64.9286H659.138V72.9643H651.102V64.9286ZM651.102 72.9643H659.138V81H651.102V72.9643ZM643.066 72.9643H651.102V81H643.066V72.9643ZM643.066 64.9286H651.102V72.9643H643.066V64.9286ZM683.245 72.9643H691.281V81H683.245V72.9643ZM691.281 72.9643H699.316V81H691.281V72.9643ZM691.281 64.9286H699.316V72.9643H691.281V64.9286ZM691.281 56.8929H699.316V64.9286H691.281V56.8929ZM691.281 48.8571H699.316V56.8929H691.281V48.8571ZM691.281 40.8214H699.316V48.8571H691.281V40.8214ZM691.281 32.7857H699.316V40.8214H691.281V32.7857ZM691.281 24.75H699.316V32.7857H691.281V24.75ZM683.245 40.8214H691.281V48.8571H683.245V40.8214ZM683.245 48.8571H691.281V56.8929H683.245V48.8571ZM683.245 56.8929H691.281V64.9286H683.245V56.8929ZM683.245 64.9286H691.281V72.9643H683.245V64.9286ZM683.245 32.7857H691.281V40.8214H683.245V32.7857ZM659.138 24.75H667.174V32.7857H659.138V24.75ZM667.174 24.75H675.209V32.7857H667.174V24.75ZM675.209 24.75H683.245V32.7857H675.209V24.75ZM675.209 16.7143H683.245V24.75H675.209V16.7143ZM683.245 16.7143H691.281V24.75H683.245V16.7143ZM683.245 24.75H691.281V32.7857H683.245V24.75ZM667.174 16.7143H675.209V24.75H667.174V16.7143ZM723.444 16.7143H731.48V24.75H723.444V16.7143ZM715.409 16.7143H723.444V24.75H715.409V16.7143ZM715.409 24.75H723.444V32.7857H715.409V24.75ZM723.444 24.75H731.48V32.7857H723.444V24.75ZM731.48 16.7143H739.516V24.75H731.48V16.7143ZM739.516 16.7143H747.552V24.75H739.516V16.7143ZM747.552 16.7143H755.587V24.75H747.552V16.7143ZM747.552 24.75H755.587V32.7857H747.552V24.75ZM739.516 24.75H747.552V32.7857H739.516V24.75ZM755.587 24.75H763.623V32.7857H755.587V24.75ZM755.587 32.7857H763.623V40.8214H755.587V32.7857ZM755.587 64.9286H763.623V72.9643H755.587V64.9286ZM747.552 64.9286H755.587V72.9643H747.552V64.9286ZM747.552 32.7857H755.587V40.8214H747.552V32.7857ZM739.516 64.9286H747.552V72.9643H739.516V64.9286ZM747.552 72.9643H755.587V81H747.552V72.9643ZM739.516 72.9643H747.552V81H739.516V72.9643ZM731.48 72.9643H739.516V81H731.48V72.9643ZM723.444 72.9643H731.48V81H723.444V72.9643ZM715.409 72.9643H723.444V81H715.409V72.9643ZM715.409 64.9286H723.444V72.9643H715.409V64.9286ZM723.444 64.9286H731.48V72.9643H723.444V64.9286ZM715.409 56.8929H723.444V64.9286H715.409V56.8929ZM707.373 64.9286H715.409V72.9643H707.373V64.9286ZM707.373 56.8929H715.409V64.9286H707.373V56.8929ZM707.373 48.8571H715.409V56.8929H707.373V48.8571ZM707.373 40.8214H715.409V48.8571H707.373V40.8214ZM707.373 32.7857H715.409V40.8214H707.373V32.7857ZM707.373 24.75H715.409V32.7857H707.373V24.75ZM715.409 32.7857H723.444V40.8214H715.409V32.7857ZM715.409 40.8214H723.444V48.8571H715.409V40.8214ZM715.409 48.8571H723.444V56.8929H715.409V48.8571ZM731.48 64.9286H739.516V72.9643H731.48V64.9286ZM731.48 24.75H739.516V32.7857H731.48V24.75ZM747.552 40.8214H755.587V48.8571H747.552V40.8214ZM755.587 40.8214H763.623V48.8571H755.587V40.8214ZM723.444 48.8571H731.48V56.8929H723.444V48.8571ZM731.48 48.8571H739.516V56.8929H731.48V48.8571ZM739.516 48.8571H747.552V56.8929H739.516V48.8571ZM747.552 48.8571H755.587V56.8929H747.552V48.8571ZM755.587 48.8571H763.623V56.8929H755.587V48.8571ZM739.516 40.8214H747.552V48.8571H739.516V40.8214ZM731.48 40.8214H739.516V48.8571H731.48V40.8214ZM723.444 40.8214H731.48V48.8571H723.444V40.8214Z" fill="#FF904C"/>
</svg>
